<svg width="14" height="14" viewBox="0 0 14 14" fill="none" xmlns="http://www.w3.org/2000/svg">
<path d="M6.8579 12.1087L6.30284 13.3826C6.08951 13.8725 5.41198 13.8725 5.19864 13.3826L4.6416 12.1087C4.14778 10.9749 3.25691 10.0723 2.14481 9.57852L0.615926 8.89908C0.128025 8.68379 0.128025 7.97472 0.615926 7.75943L2.09741 7.09973C3.23716 6.5941 4.14383 5.65789 4.62975 4.48663L5.19272 3.12774C5.4021 2.62409 6.09741 2.62409 6.30679 3.12774L6.86975 4.48663C7.35765 5.65789 8.26234 6.5941 9.4021 7.09973L10.8856 7.75943C11.3715 7.97472 11.3715 8.68379 10.8856 8.89908L9.35469 9.57852C8.24457 10.0723 7.3537 10.9749 6.8579 12.1087Z" fill="#795DFC"/>
<path d="M12.536 3.11956L12.3509 3.54421C12.2798 3.70749 12.054 3.70749 11.9829 3.54421L11.7972 3.11956C11.6326 2.74165 11.3356 2.44077 10.9649 2.27617L10.4553 2.04969C10.2927 1.97793 10.2927 1.74157 10.4553 1.66981L10.9491 1.44991C11.3291 1.28137 11.6313 0.969296 11.7933 0.578878L11.9809 0.125915C12.0507 -0.0419715 12.2825 -0.0419715 12.3523 0.125915L12.5399 0.578878C12.7026 0.969296 13.0041 1.28137 13.384 1.44991L13.8785 1.66981C14.0405 1.74157 14.0405 1.97793 13.8785 2.04969L13.3682 2.27617C12.9982 2.44077 12.7012 2.74165 12.536 3.11956Z" fill="#795DFC"/>
</svg>
