<svg width="20" height="20" viewBox="0 0 20 20" fill="none" xmlns="http://www.w3.org/2000/svg">
<path d="M2.74666 17.168L8.04996 11.8647M8.04996 11.8647C8.53812 12.3529 9.32958 12.3529 9.81773 11.8647C10.3059 11.3766 10.3059 10.5851 9.81773 10.0969C9.32958 9.60878 8.53812 9.60878 8.04996 10.0969C7.56181 10.5851 7.56181 11.3766 8.04996 11.8647ZM14.8264 9.21306L17.1834 6.85603C17.8343 6.20516 17.8343 5.14988 17.1834 4.49901L15.4157 2.73124C14.7648 2.08037 13.7095 2.08037 13.0586 2.73125L10.7016 5.08827M13.141 14.2694L14.7287 9.50622C14.7886 9.32655 14.7418 9.12846 14.6079 8.99455L10.9373 5.32397C10.7946 5.18124 10.58 5.13833 10.3934 5.21518L5.90454 7.06353C5.77018 7.11886 5.66653 7.2299 5.62058 7.36776L2.46109 16.8462C2.33317 17.23 2.69018 17.5989 3.07792 17.4836L12.8091 14.5905C12.9655 14.544 13.0894 14.4242 13.141 14.2694Z" stroke="#141C25" stroke-width="1.5" stroke-linecap="round" stroke-linejoin="round"/>
</svg>
