<svg width="20" height="20" viewBox="0 0 20 20" fill="none" xmlns="http://www.w3.org/2000/svg">
<g clip-path="url(#clip0_2179_148)">
<path d="M2.08333 10.4167L6.66666 12.0834L5.83333 15L6.66666 17.5M17.9167 10.8334L14.1667 10.4167L11.6667 11.25V14.1667L13.75 15L14.1667 17.0834M17.9167 8.75002L16.25 7.91669H14.5833L12.5 8.75002V6.25002L15.4167 5.83335L15.8333 4.58335M7.08333 2.50002L7.91666 4.16669L6.25 6.66669L4.16666 7.08335L2.08333 8.75002M18.3333 10C18.3333 14.6024 14.6024 18.3334 10 18.3334C5.39762 18.3334 1.66666 14.6024 1.66666 10C1.66666 5.39765 5.39762 1.66669 10 1.66669C14.6024 1.66669 18.3333 5.39765 18.3333 10Z" stroke="#637083" stroke-width="1.5" stroke-linecap="round" stroke-linejoin="round"/>
</g>
<defs>
<clipPath id="clip0_2179_148">
<rect width="20" height="20" fill="white"/>
</clipPath>
</defs>
</svg>
