<svg width="20" height="20" viewBox="0 0 20 20" fill="none" xmlns="http://www.w3.org/2000/svg">
<g clip-path="url(#clip0_2001_1389)">
<path d="M4.16665 10.8333L8.91533 14.9036C9.53948 15.4386 10.4605 15.4386 11.0846 14.9036L15.8333 10.8333M4.16665 14.1667L8.91533 18.237C9.53948 18.7719 10.4605 18.7719 11.0846 18.237L15.8333 14.1667M4.76679 7.92096L8.90247 11.5397C9.53085 12.0895 10.4691 12.0895 11.0975 11.5397L15.2332 7.92096C15.992 7.25694 15.992 6.07639 15.2332 5.41237L11.0975 1.79365C10.4691 1.24382 9.53085 1.24382 8.90247 1.79365L4.76679 5.41237C4.00791 6.07639 4.00791 7.25694 4.76679 7.92096Z" stroke="#141C25" stroke-width="1.5" stroke-linecap="round" stroke-linejoin="round"/>
</g>
<defs>
<clipPath id="clip0_2001_1389">
<rect width="20" height="20" fill="white" transform="matrix(0 1 -1 0 20 0)"/>
</clipPath>
</defs>
</svg>
