<svg width="20" height="20" viewBox="0 0 20 20" fill="none" xmlns="http://www.w3.org/2000/svg">
<path d="M11.1785 8.81955C9.71025 7.35129 6.86835 7.23996 5.20318 8.90513C5.00593 9.10237 4.35577 9.75254 4.19303 9.91529C2.51935 11.589 2.48104 14.2642 4.10745 15.8906C5.50894 17.2921 7.68924 17.4575 9.33637 16.4055C9.60072 16.2367 9.85133 16.0365 10.0828 15.805" stroke="#637083" stroke-width="1.5" stroke-linecap="round" stroke-linejoin="round"/>
<path d="M8.82148 11.1765C10.2897 12.6448 13.1316 12.7561 14.7968 11.091C14.9941 10.8937 15.6442 10.2436 15.807 10.0808C17.4806 8.40713 17.519 5.73188 15.8926 4.10547C14.4911 2.70398 12.3108 2.53862 10.6636 3.59059C10.3993 3.75942 10.1487 3.9596 9.91722 4.19105" stroke="#637083" stroke-width="1.5" stroke-linecap="round" stroke-linejoin="round"/>
</svg>
