<svg width="20" height="20" viewBox="0 0 20 20" fill="none" xmlns="http://www.w3.org/2000/svg">
<path d="M1.66016 15.8334H4.16016M4.16016 15.8334H6.66016M4.16016 15.8334V13.3334M4.16016 15.8334V18.3334M5.83333 1.66669H13.75L17.5 5.41669V15.8334M9.16667 18.3334H13.75C14.4404 18.3334 15 17.7737 15 17.0834V7.29046C15 7.15785 14.9473 7.03068 14.8536 6.93691L12.2298 4.31313C12.136 4.21937 12.0088 4.16669 11.8762 4.16669H3.75C3.05964 4.16669 2.5 4.72633 2.5 5.41669V10.8334M11.6667 4.16669V7.00002C11.6667 7.27616 11.8905 7.50002 12.1667 7.50002H15" stroke="#637083" stroke-width="1.5" stroke-linecap="round" stroke-linejoin="round"/>
</svg>
