<svg width="20" height="20" viewBox="0 0 20 20" fill="none" xmlns="http://www.w3.org/2000/svg">
<g clip-path="url(#clip0_2179_9)">
<path d="M10 12.5C11.3807 12.5 12.5 11.3807 12.5 10C12.5 8.61929 11.3807 7.5 10 7.5C8.61929 7.5 7.5 8.61929 7.5 10C7.5 11.3807 8.61929 12.5 10 12.5Z" stroke="#637083" stroke-width="1.5" stroke-linecap="round" stroke-linejoin="round"/>
<path d="M16.352 8.66283L15.4373 6.45399L16.6667 5L15 3.33333L13.5539 4.56913L11.2981 3.64145L10.7794 1.66666H9.15082L8.62423 3.6676L6.42034 4.59663L5 3.33333L3.33333 5L4.54447 6.4907L3.64375 8.70527L1.66667 9.16666V10.8333L3.66759 11.3796L4.59646 13.5831L3.33333 15L5 16.6667L6.49264 15.4502L8.66418 16.3436L9.16667 18.3333H10.8333L11.3371 16.3443L13.5459 15.4296C13.9141 15.6928 15 16.6667 15 16.6667L16.6667 15L15.4299 13.5412L16.3449 11.3317L18.3332 10.8143L18.3333 9.16666L16.352 8.66283Z" stroke="#637083" stroke-width="1.5" stroke-linecap="round" stroke-linejoin="round"/>
</g>
<defs>
<clipPath id="clip0_2179_9">
<rect width="20" height="20" fill="white"/>
</clipPath>
</defs>
</svg>
